<!DOCTYPE svg PUBLIC "-//W3C//DTD SVG 1.1//EN" "http://www.w3.org/Graphics/SVG/1.1/DTD/svg11.dtd">

<!-- Uploaded to: SVG Repo, www.svgrepo.com, Transformed by: SVG Repo Mixer Tools -->
<svg width="64px" height="64px" viewBox="0 0 16 16" xmlns="http://www.w3.org/2000/svg" fill="#ffc0cb" class="bi bi-emoji-dizzy-fill">

<g id="SVGRepo_bgCarrier" stroke-width="0"/>

<g id="SVGRepo_tracerCarrier" stroke-linecap="round" stroke-linejoin="round"/>

<g id="SVGRepo_iconCarrier"> <path d="M8 16A8 8 0 1 0 8 0a8 8 0 0 0 0 16zM4.146 5.146a.5.5 0 0 1 .708 0l.646.647.646-.647a.5.5 0 1 1 .708.708l-.647.646.647.646a.5.5 0 1 1-.708.708L5.5 7.207l-.646.647a.5.5 0 1 1-.708-.708l.647-.646-.647-.646a.5.5 0 0 1 0-.708zm5 0a.5.5 0 0 1 .708 0l.646.647.646-.647a.5.5 0 0 1 .708.708l-.647.646.647.646a.5.5 0 0 1-.708.708l-.646-.647-.646.647a.5.5 0 1 1-.708-.708l.647-.646-.647-.646a.5.5 0 0 1 0-.708zM8 13a2 2 0 1 1 0-4 2 2 0 0 1 0 4z"/> </g>

</svg>